# xmcd
#
# Track frame offsets:
#	150
#	11635
#	23383
#	34360
#	43864
#	56437
#	65065
#	74475
#	85835
#	95887
#	105815
#	117119
#	127565
#	137827
#	150581
#	159847
#	169824
#	179942
#	191497
#	201956
#
# Disc length: 2821 seconds
#
# Revision: 1
# Processed by: cddbd v1.5.2PL0 Copyright (c) Steve Scherf et al.
# Submitted via: audiograbber 1.83.01
#
DISCID=0e0b0314
DTITLE=verschiedene - Country CD 3
DYEAR=1900
DGENRE=
TTITLE0=Jim Reeves - Yonder  Comes A Sucker
TTITLE1=Tennessee Ernie Ford - Sicteen Tons
TTITLE2=Johnny Cash - Cry Cry Cry
TTITLE3=Louvin Brothers - I Don´t Believe You Met My Baby
TTITLE4=Porter Wagoner - A Satisfied Mind
TTITLE5=Johnny and Jack - Oh Baby Mine
TTITLE6=Webb Pierce - In The Jailhouse Now
TTITLE7=Red Sovine and Webb Pierce - Why Baby Why
TTITLE8=Johnny Cash - Get Rhythm
TTITLE9=George Jones - Rock It
TTITLE10=Sonny James - Young Love
TTITLE11=Johnny Horton - I´m Ready If You´re Willing
TTITLE12=Webb Pierce - Teenage Boogie
TTITLE13=Johnny Cash - Folsom Prison Blues
TTITLE14=Bob Luman - Red Hot
TTITLE15=Johnny Horton - Honky Tonk Man
TTITLE16=Don Gibson - Sweet Dreams
TTITLE17=Johnny Cash - I Walk The Line
TTITLE18=Johnny Horton - Honky Tonk Hardwood Floor
TTITLE19=Johnny Duncan - Rockabilly Baby
EXTD=
EXTT0=
EXTT1=
EXTT2=
EXTT3=
EXTT4=
EXTT5=
EXTT6=
EXTT7=
EXTT8=
EXTT9=
EXTT10=
EXTT11=
EXTT12=
EXTT13=
EXTT14=
EXTT15=
EXTT16=
EXTT17=
EXTT18=
EXTT19=
PLAYORDER=
